<svg width="150" height="34" viewBox="0 0 150 34" fill="none" xmlns="http://www.w3.org/2000/svg">
<path d="M23.8999 15.6V27.8C23.8999 31.2 21.1 34 17.7 34H6.19995C2.79995 34 0 31.2 0 27.8V24.4C0 21 2.79995 18.2 6.19995 18.2H15.1C16.4 18.2 17.3999 19.2 17.3999 20.5C17.3999 21.8 16.4 22.8 15.1 22.8H6.19995C5.29995 22.8 4.59998 23.5 4.59998 24.4V27.8C4.59998 28.7 5.29995 29.4 6.19995 29.4H17.7C18.6 29.4 19.2999 28.7 19.2999 27.8V15.6C19.2999 14.7 18.6 14 17.7 14H9.69995C8.39995 14 7.3999 13 7.3999 11.7C7.3999 10.4 8.39995 9.40002 9.69995 9.40002H17.7C21.1 9.30002 23.8999 12.1 23.8999 15.6ZM143 9.30005H131.5C128.1 9.30005 125.3 12.1 125.3 15.5V27.7C125.3 31.1 128.1 33.9 131.5 33.9H139.5C140.8 33.9 141.8 32.9 141.8 31.6C141.8 30.3 140.8 29.3 139.5 29.3H131.5C130.6 29.3 129.9 28.6 129.9 27.7V15.5C129.9 14.6 130.6 13.9 131.5 13.9H143C143.9 13.9 144.6 14.6 144.6 15.5V18.9C144.6 19.8 143.9 20.5 143 20.5H134.1C132.8 20.5 131.8 21.5 131.8 22.8C131.8 24.1 132.8 25.1 134.1 25.1H143C146.4 25.1 149.2 22.3 149.2 18.9V15.5C149.3 12.1 146.5 9.30005 143 9.30005ZM48.7 0C47.4 0 46.3999 1.00005 46.3999 2.30005V27.7C46.3999 28.6 45.6999 29.3 44.7999 29.3H33.6C32.7 29.3 32 28.6 32 27.7V15.7C32 14.8 32.7 14.1 33.6 14.1H42.5C43.8 14.1 44.7999 13.1 44.7999 11.8C44.7999 10.5 43.8 9.5 42.5 9.5H33.6C30.2 9.5 27.3999 12.3 27.3999 15.7V27.7C27.3999 31.1 30.2 33.9 33.6 33.9H44.7999C48.1999 33.9 51 31.1 51 27.7V2.30005C51 1.00005 49.9 0 48.7 0ZM104.7 14.2H119C120.3 14.2 121.3 13.2 121.3 11.9C121.3 10.6 120.3 9.59998 119 9.59998H104.7C101.3 9.59998 98.5 12.4 98.5 15.8V18.2C98.5 21.6 101.3 24.4 104.7 24.4H115C115.9 24.4 116.6 25.1 116.6 26V27.7C116.6 28.6 115.9 29.3 115 29.3H101.1C99.8 29.3 98.7999 30.3 98.7999 31.6C98.7999 32.9 99.8 33.9 101.1 33.9H115C118.4 33.9 121.2 31.1 121.2 27.7V26C121.2 22.6 118.4 19.8 115 19.8H104.7C103.8 19.8 103.1 19.1 103.1 18.2V15.8C103.1 14.9 103.8 14.2 104.7 14.2ZM69.5 8.90002C68.2 8.90002 67.2 9.89995 67.2 11.2V27.7C67.2 28.6 66.5 29.3 65.6 29.3H61.2C60.3 29.3 59.6 28.6 59.6 27.7V11.7C59.6 10.4 58.5999 9.40002 57.2999 9.40002C55.9999 9.40002 55 10.4 55 11.7V27.7C55 31.1 57.8 33.9 61.2 33.9H65.6C69 33.9 71.7999 31.1 71.7999 27.7V11.2C71.7999 9.99995 70.8 8.90002 69.5 8.90002ZM82.2 9.30005C80.9 9.30005 79.8999 10.3 79.8999 11.6V27.7C79.8999 28.6 79.1999 29.3 78.2999 29.3H74.7C73.4 29.3 72.3999 30.3 72.3999 31.6C72.3999 32.9 73.4 33.9 74.7 33.9H78.2999C81.6999 33.9 84.5 31.1 84.5 27.7V11.6C84.5 10.3 83.5 9.30005 82.2 9.30005ZM91.1 9.30005C89.8 9.30005 88.7999 10.3 88.7999 11.6V31.6C88.7999 32.9 89.8 33.9 91.1 33.9C92.4 33.9 93.3999 32.9 93.3999 31.6V11.6C93.3999 10.3 92.4 9.30005 91.1 9.30005ZM3.5 14C3.7 14 3.8 14 4 14C4.1 14 4.2999 13.9 4.3999 13.9C4.4999 13.8 4.69993 13.8 4.79993 13.7C4.89993 13.6 4.99995 13.5 5.19995 13.4C5.59995 13 5.8999 12.4 5.8999 11.8C5.8999 11.2 5.69995 10.6 5.19995 10.2C5.09995 10.1 4.99993 10 4.79993 9.90002C4.69993 9.80002 4.4999 9.69995 4.3999 9.69995C4.2999 9.59995 4.1 9.59998 4 9.59998C3.2 9.39998 2.3999 9.69995 1.8999 10.2C1.7999 10.3 1.69998 10.4 1.59998 10.6C1.49998 10.7 1.3999 10.9 1.3999 11C1.2999 11.1 1.29993 11.3 1.29993 11.4C1.29993 11.6 1.29993 11.7 1.29993 11.9C1.29993 12.5 1.5 13.1 2 13.5C2.2 13.7 2.8 14 3.5 14Z" fill="white"/>
</svg>
