<svg width="214" height="46" viewBox="0 0 214 46" fill="none" xmlns="http://www.w3.org/2000/svg">
<path d="M46 23C46 10.3 35.7 0 23 0C10.3 0 0 10.3 0 23C0 35.7 10.3 46 23 46C31 46 34.3 41.1999 34.3 36.7999C34.3 31.8999 30.3 27.8999 25.3 27.8999C24.6 27.8999 23.3 27.8999 23.3 27.8999H17.5C16.8 27.8999 16.2 27.3 16.2 26.6C16.2 25.9 16.8 25.2999 17.5 25.2999C17.5 25.2999 18 25.5 18.4 25.7C19.8 26.2 21.3 26.5 22.9 26.5C23.1 26.5 23.2 26.5 23.4 26.5C29 26.3 33.4 22.7999 33.4 18.3999C33.4 16.6999 32.8 15.1999 31.6 13.8999C35.1 14.0999 36.5 12.9 37.1 12.2C39.4 15.2 40.8 19 40.8 23C40.8 25.7 40.2 28.2 39.1 30.5L36 28.7999L37.2 33.6L37.9 36.3999L42.4 34.8999L45.6 33.8999L43.6 32.7999C45.2 29.9999 46 26.6 46 23ZM23 22.5C22.3 22.5 21.7 22.3 21.2 22.1C20.9 22 20.6 21.8 20.3 21.5C19.4 20.7 18.9 19.5999 18.9 18.3999C18.9 16.0999 20.8 14.2999 23 14.2999C25.3 14.2999 27.1 16.1999 27.1 18.3999C27.1 20.5999 25.3 22.5 23 22.5ZM27.1 10.8999C25.8 10.4999 24.4 10.2 22.9 10.2C17.1 10.2 12.4 13.7999 12.4 18.2999C12.4 19.5999 12.8 20.9 13.6 22C12.2 23.1 11.3 24.7999 11.3 26.7999C11.3 30.0999 14 32.7999 17.3 32.8999H25.9C28 32.8999 29.8 34.5999 29.8 36.7999C29.8 38.4999 28.7 40 27.1 40.5C27.1 40.5 25.6 41 23 41C20.9 41 18.8 40.5999 16.9 39.8999C10 37.3999 5.09998 30.8 5.09998 23.1C5.09998 13.2 13.1 5.19995 23 5.19995C26.9 5.19995 30.4 6.4 33.3 8.5C32.4 11.9 27.4 10.9999 27.1 10.8999ZM78.2 18.7C78.2 18.7 76.5 17.6 73.2 17.6C69 17.6 65.6 21 65.6 24.7C65.6 28.4 69.2 28.6 70.5 28.6C71.8 28.6 72.6 28.1 72.7 27.6C72.8 27.2 73.3 24.7999 73.3 24.7999H70.2L72 21.5H78.2L76.4 30.7C75.3 31.3 71.8 32.6 69.1 32.6C66.4 32.6 61.1 31.4 61.1 25.5C61.1 16.5 69.2 13.3999 74.1 13.3999C77.7 13.3999 79.4 14.6 79.4 14.6L78.2 18.7ZM96.3 32.2H100.7L98.8 14.1H93.2L88.2 24.2999H84L82.4 27.7H86.5L84.2 32.2999H89.1L91.2 27.7H96L96.3 32.2ZM92.7 24.2999L95.5 18.3999L95.8 24.2999H92.7ZM162.4 22.6L161.6 28.1C161.6 28.3 161.7 28.5 162 28.5H164L163.3 32.1H161H159.5C158.1 32.1 157 30.7999 157.2 29.3999L159.3 15.5L163.8 14L163.1 18.8999H166.1L165.4 22.5H162.4V22.6ZM131.6 19L124 32.2H119.7L117.5 19H121.8L123.1 26.5L127.4 19H131.6ZM155.9 24L154.7 32.2H150.4L151.6 24C151.8 22.8 151.3 22.2999 150.4 22.2999C149.2 22.2999 147.9 23.7 147.7 25L146.6 32.2H142.3L144.3 19H148.6L148.3 20.8999C148.4 19.8999 150.4 18.6 152.6 18.6C154.9 18.6 156.5 20.3 155.9 24ZM179.8 19L177.8 32.2H173.5L173.8 30.2999C173.7 31.2999 171.7 32.6 169.5 32.6C167.3 32.6 165.8 30.9 166.3 27.1L167.5 18.8999H171.8L170.6 27.1C170.4 28.3 170.9 28.7999 171.8 28.7999C173 28.7999 174.3 27.4 174.5 26.1L175.6 18.8999H179.8V19ZM191.7 19.2L188.6 23.1C188.4 22.6 188 22.2999 187.4 22.2999C186.2 22.2999 184.9 23.7 184.7 25L183.6 32.2H179.3L181.3 19H185.6L185.3 20.8999C185.4 19.8999 187.4 18.6 189.6 18.6C190.5 18.6 191.2 18.8 191.7 19.2ZM197.7 18.6C194.5 18.6 191.4 20.9 190.2 24C190 24.5 189.9 25 189.8 25.5C189.7 26.1 189.7 26.6 189.7 27.1C189.9 30.2 192.1 32.5 195.3 32.5C198.9 32.5 200.5 31 200.5 31L199.1 28.2C199.1 28.2 197.8 29 195.9 29C194.8 29 193.5 28.4 193.3 27H202C202.7 26.2 204.2 18.6 197.7 18.6ZM194.2 24C194.8 22.9 195.8 22 196.8 21.6C198.4 21 199.6 22.1 199.4 24H194.2ZM137.5 18.6C134.3 18.6 131.2 20.9 130 24C129.8 24.5 129.7 25 129.6 25.5C129.5 26.1 129.5 26.6 129.5 27.1C129.7 30.2 131.9 32.5 135.1 32.5C138.7 32.5 140.3 31 140.3 31L138.9 28.2C138.9 28.2 137.6 29 135.7 29C134.6 29 133.3 28.4 133.1 27H141.8C142.4 26.2 144 18.6 137.5 18.6ZM133.9 24C134.5 22.9 135.5 22 136.5 21.6C138.1 21 139.3 22.1 139.1 24H133.9ZM212.7 22.3999C211 21.1999 208.2 21.4999 208.2 22.7999C208.2 24.2999 212.7 23.9 212.7 27.5C212.7 31.3 209.2 32.7 206.3 32.7C203.5 32.7 202 31.3999 202 31.3999L203.3 28.7C205.3 30.2 208.6 29.8 208.6 28.5C208.6 26.9 203.8 27.1 203.8 24C203.8 20.5 207.6 18.7 210.2 18.7C212.8 18.7 213.9 19.7999 213.9 19.7999L212.7 22.3999ZM113.1 14.1L112.2 20.2C111.4 19.3 110.3 18.7 108.9 18.7C105.7 18.7 102.6 21.8 101.9 25.6C101.2 29.4 103.3 32.5 106.5 32.5C108 32.5 109.4 31.8999 110.6 30.7999L110.4 32.1H114.7L117.4 14H113.1V14.1ZM107.9 28.8999C106.4 28.8999 105.5 27.5 105.9 25.7C106.3 23.9 107.7 22.3999 109.2 22.2999C110.7 22.2999 111.6 23.7 111.2 25.5C110.8 27.4 109.3 28.8999 107.9 28.8999Z" fill="white"/>
</svg>
