<svg width="136" height="46" viewBox="0 0 136 46" fill="none" xmlns="http://www.w3.org/2000/svg">
<path d="M95.1001 27.7L99.7001 16.5L98.1001 27.7H95.1001ZM41.9 12.8C40.5 12.8 39.5001 13.7 39.2001 15L34.9 31C34.5 32.3 35.1 33.2 36.5 33.2C37.9 33.2 38.9001 32.3 39.2001 31L43.5 15C43.8 13.7 43.2 12.8 41.9 12.8ZM56.9 13.1H54.7001L52.4 21.8H54.4C55.4 21.8 56.2 21.1 56.5 19.8L57.8 14.9C58.2 13.7 57.9 13.1 56.9 13.1ZM135.6 0L129.1 36.8C128.1 42.1 123.4 46 118 46H0L6.30005 10.3C7.40005 4.3 12.6 0 18.8 0H135.6ZM27.2001 36.9L30.8 23.2H24.5L23.7001 26.5H25.8L24.5 31.3C24.2 32.4 23.2001 33.4 21.7001 33.4C20.2001 33.4 19.7 32.5 20 31.3L24.4 15C24.8 13.9 25.8001 12.9 27.2001 12.9C28.7001 12.9 29.1 13.8 28.8 14.9L27.8 18.8H31.9L32.9 15.2C33.8 11.8 32.3 9 28.3 9C24.2 9 20.9 11.8 20 15.2L15.8 31C14.8 34.6 16.4 37.2 20 37.2C21.9 37.2 23.7 36.5 24.8 34.9L24.3 36.8V37H27.2001V36.9ZM43.6001 30.7L47.7001 15.3C48.7001 11.5 47 8.8 43 8.8C39 8.8 35.7001 11.5 34.7001 15.3L30.6001 30.7C29.6001 34.5 31.4 37.2 35.3 37.2C39.3 37.2 42.6001 34.5 43.6001 30.7ZM57.8 31.8L58.7001 28.2L59 27.3C59.5 25.5 58.9 24.1 57.3 23.5C59.3 22.8 60.5 21.5 60.9 19.7L62.2001 14.9C63.2001 11.2 61.4 9.5 58.3 9.5H51.3L44 36.8H48.4L51.5 25.3H53.6001C54.8001 25.3 55.1 26.2 54.8 27.3L53.2001 33.2C52.6001 35.3 52.8 37 54.5 37H56.4L57.4 33L57.8 31.8ZM62.8 36.7L70.2001 9.3H65.8L58.4 36.7H62.8ZM70.5 32.7L76.7001 9.3H72.3L64.9 36.7H75.6001L76.6001 32.7H70.5ZM101.2 36.7L104 9.3H99.2001L89 32.7H82.3L88.5 9.3H84.1001L76.7001 36.7H87.2001H91.3L93.5 31.4H97.5L96.8 36.7H101.2ZM115.5 8.89999C111.2 8.89999 108.3 11.9 107.3 15.6C106.4 19 108.1 22.3 109.8 24.5C111.5 26.9 112.2 28.7 111.6 31.1C111.1 32.6 110.2 33.5 108.6 33.5C107.1 33.5 106.6 32.6 107 30.8L107.7 28.5H103.7L103 30.9C102 34.7 103.8 37.1 107.7 37.1C111.2 37.1 114.7 34.8 115.9 30.4C116.8 27 115.6 24.3 113.7 21.5C111.8 18.8 111 17.5 111.7 14.8C112.1 13.4 113.1 12.6 114.4 12.6C115.8 12.6 116.2 13.6 115.8 15.1L115.1 17.5H119L119.7 15.1C120.8 11.4 119 8.89999 115.5 8.89999Z" fill="white"/>
</svg>
