<svg width="132" height="42" viewBox="0 0 132 42" fill="none" xmlns="http://www.w3.org/2000/svg">
<path d="M85.0246 34.7C78.2246 34.7 77.6244 29.5 78.6244 25.6L79.8246 20C81.3246 13.6 84.3246 10.5 90.8246 10.5H103.924C104.424 10.5 104.724 10.8999 104.624 11.2999L103.325 16.7C103.225 17.2 102.825 17.5 102.225 17.5H91.2245C88.9245 17.5 86.9245 17.8 86.4245 19.9L85.3246 24.7999C84.9246 26.2999 85.0246 27.5 86.8246 27.5H100.225C100.725 27.5 101.024 27.8999 100.924 28.2999L99.8246 33.7C99.7246 34.2 99.3245 34.5 98.7245 34.5L85.0246 34.7ZM45.1244 34.7H54.2245C60.6245 34.7 63.0246 32 64.5246 25.6L65.7245 20C66.6245 16.1 66.2245 10.5 59.4245 10.5H50.3246C43.9246 10.5 40.8245 13.6 39.3245 20L34.6245 41.1C34.5245 41.5 34.7245 41.9 35.3245 41.9H40.9245C41.3245 41.9 41.8246 41.5 42.0246 41.1L43.5246 34.5C44.0246 34.6 44.6244 34.7 45.1244 34.7ZM46.2245 20C46.9245 17.9 48.7246 17.6 51.0246 17.6H57.6244C59.2244 17.6 59.7246 18.5 59.3246 20L58.2245 24.5C57.7245 27 56.6245 27.7 54.2245 27.7H46.6244C44.9244 27.7 44.9244 26.4 45.1244 25L46.2245 20ZM111.825 20C112.525 17.9 114.325 17.6 116.725 17.6H123.124C124.724 17.6 125.225 18.5 124.825 20L123.725 24.5C123.225 27 122.125 27.7 119.725 27.7H112.124C110.424 27.7 110.424 26.4 110.624 25L111.825 20ZM120.025 34.7C126.425 34.7 128.825 32 130.325 25.6L131.624 20C132.524 16.1 132.125 10.5 125.325 10.5H116.225C109.825 10.5 106.725 13.6 105.225 20L104.025 25.6C103.125 29.5 103.624 34.7 110.424 34.7H120.025ZM25.2245 33.7999C25.1245 34.1999 25.3245 34.6 25.9245 34.6H31.5246C31.9246 34.6 32.4245 34.1999 32.6245 33.7999L37.5246 11.2C37.6246 10.8 37.4245 10.4 36.8245 10.4H31.2245C30.8245 10.4 30.3245 10.8 30.1245 11.2L25.2245 33.7999ZM65.8246 33.7999C65.7246 34.1999 65.9246 34.6 66.5246 34.6H72.1244C72.5244 34.6 73.0245 34.1999 73.2245 33.7999L78.1244 11.2C78.2244 10.8 78.0245 10.4 77.4245 10.4H71.8246C71.4246 10.4 70.9245 10.8 70.7245 11.2L65.8246 33.7999ZM0.0245588 16.7C-0.0754412 17.1 0.12451 17.5 0.72451 17.5H6.52456L4.82449 25.5C3.92449 29.4 4.92449 34.6 11.8245 34.6H20.4245C20.8245 34.6 21.3245 34.1999 21.3245 33.7999L22.1245 29.4C22.2245 29 22.0245 28.6 21.4245 28.6H13.6245C11.7245 28.6 11.6246 27.3 12.0246 25.7L13.9245 17.7H23.9245C24.3245 17.7 24.8246 17.3 25.0246 16.9L26.2245 11.5C26.3245 11.1 26.1246 10.7 25.5246 10.7H2.42446C2.02446 10.7 1.52449 11.1 1.32449 11.5L0.0245588 16.7ZM16.9245 4.09998C16.9245 1.79998 15.0245 0 12.8245 0C10.6245 0 8.72451 1.89998 8.72451 4.09998C8.72451 6.29998 10.6245 8.19995 12.8245 8.19995C15.0245 8.39995 16.9245 6.49998 16.9245 4.09998Z" fill="white"/>
</svg>
