<svg width="204" height="28" viewBox="0 0 204 28" fill="none" xmlns="http://www.w3.org/2000/svg">
<path d="M29.4 0.900024H35.6L31 27.3H26.3L26.4 28H21L17.6 3.59998L14.7 27.4H10L13.2 1H17.9L17.8 1.69995H22.5L25.8 24.3L29.4 0.900024ZM0 0.900024L3.59998 27.3H9.79999L6.19995 0.900024H0ZM48.7 9.30005H54.5V27.3H48.7V23.2C47.6 25.9 45.4 27.2 42.9 27.2C39.2 27.2 36.2 24.8 36.2 18.3C36.2 11.8 39.2 9.40002 42.9 9.40002C45.4 9.40002 47.6 10.6 48.7 13.4V9.30005ZM48.7 20.2V16.2C48.1 14.6 46.9 13.5 45.4 13.5C43.4 13.5 41.8 15.6 41.8 18.2C41.8 20.8 43.4 22.9 45.4 22.9C46.9 22.9 48.1 21.8 48.7 20.2ZM66 25L63.3 9.69995H56.9L60.7 27.7H66.4L66.2 26.6H71.2L74.9 8.59998H68.8L66 25ZM140.3 9.30005H146.1V27.3H140.3V23.2C139.2 25.9 137 27.2 134.5 27.2C130.8 27.2 127.8 24.8 127.8 18.3C127.8 11.8 130.8 9.40002 134.5 9.40002C137 9.40002 139.2 10.6 140.3 13.4V9.30005ZM140.3 20.2V16.2C139.7 14.6 138.5 13.5 137 13.5C135 13.5 133.4 15.6 133.4 18.2C133.4 20.8 135 22.9 137 22.9C138.4 22.9 139.7 21.8 140.3 20.2ZM167.9 9.59998H161.6L156.4 16.4V0H150.6V27.3H156.4V19.2L161.6 26.8H168.3L161.5 17.8L167.9 9.59998ZM189.1 27.3H194.9V9.30005H189.1V27.3ZM186 18.2C186 18.4 186 18.6 186 18.7H173.8C173.9 21.1 175 23 177.2 23C178.8 23 179.7 22 180.2 20.6H185.8C185 24.3 182.3 27 177.2 27C171.1 27 168.4 23 168.4 18.2C168.4 13.3 171 9.40002 177.2 9.40002C183.3 9.30002 186 13.3 186 18.2ZM180.5 17.1C180.3 14.9 179.2 13.3 177.2 13.3C175.2 13.3 174.1 14.9 173.9 17.1H180.5ZM94.1 18.2C94.1 18.4 94.1 18.6 94.1 18.7H81.9C82 21.1 83.1 23 85.3 23C86.9 23 87.8 22 88.3 20.6H93.9C93.1 24.3 90.4 27 85.3 27C79.2 27 76.5 23 76.5 18.2C76.5 13.3 79.1 9.40002 85.3 9.40002C91.5 9.30002 94.1 13.3 94.1 18.2ZM88.6 17.1C88.4 14.9 87.3 13.3 85.3 13.3C83.2 13.3 82.2 14.9 82 17.1H88.6ZM119.1 9.30005C116.3 9.30005 114 11.5 113.6 14.3C113.3 11.5 111 9.30005 108.1 9.30005C105.4 9.30005 103.1 11.3 102.7 14V9.30005H96.9V27.3H102.7V15.6C103 14.4 104 13.6 105.2 13.6C106.6 13.6 107.8 14.8 107.8 16.2V20.5V26.7H113.6V19.4V15.8V15.6C113.9 14.4 114.9 13.5 116.1 13.5C117.5 13.5 118.7 14.7 118.7 16.1V20.4V26.6H124.5V19.3V15.7V14.8C124.6 11.8 122.2 9.30005 119.1 9.30005ZM199.5 9.09998C197.5 9.09998 195.8 10.8 195.8 12.8C195.8 14.8 197.5 16.5 199.5 16.5C201.5 16.5 203.2 14.8 203.2 12.8C203.2 10.8 201.5 9.09998 199.5 9.09998Z" fill="white"/>
</svg>
